# xmcd
#
# Track frame offsets: 
#        150
#        41719
#        62282
#        79209
#        101274
#        142319
#        160775
#        187352
#        218288
#        260675
#        291765
#        310725
#
# Disc length: 4595 seconds
#
# Revision: 5
# Processed by: cddbd v1.5.2PL0 Copyright (c) Steve Scherf et al.
# Submitted via: ExactAudioCopy v0.99pb3
#
DISCID=ab11f10c
DTITLE=Various Artist - The Art Of Sysyphus Vol. 18
DYEAR=2002
DGENRE=Rock
TTITLE0=Sylvan - Deep Inside
TTITLE1=Mostly Autumn - The Spirit Of Autumn Past
TTITLE2=PurPeLoid - A Bridge (Back To Itself)
TTITLE3=Tenhi - Jälen
TTITLE4=The FLower Kings - Silent Inferno [edit]
TTITLE5=Belasco - And As You Are
TTITLE6=The Cancer Conspiracy - Loft Complication
TTITLE7=Klaus Koenig - Dreamland
TTITLE8=Proto-Kaw - Incomudro [edit]
TTITLE9=Scott Henderson -  Dat's Da Way I Go
TTITLE10=The Final Cut - In The Flesh
TTITLE11=Fish - Clock Moves Sideways [live]
EXTD=
EXTT0=
EXTT1=
EXTT2=
EXTT3=
EXTT4=
EXTT5=
EXTT6=
EXTT7=
EXTT8=
EXTT9=
EXTT10=
EXTT11=
PLAYORDER=
